<!DOCTYPE svg PUBLIC "-//W3C//DTD SVG 1.1//EN" "http://www.w3.org/Graphics/SVG/1.1/DTD/svg11.dtd">
<!-- Uploaded to: SVG Repo, www.svgrepo.com, Transformed by: SVG Repo Mixer Tools -->
<svg width="800px" height="800px" viewBox="0 0 48 48" id="Layer_2" data-name="Layer 2" xmlns="http://www.w3.org/2000/svg" fill="#fff" stroke="#fff">
<g id="SVGRepo_bgCarrier" stroke-width="0"/>
<g id="SVGRepo_tracerCarrier" stroke-linecap="round" stroke-linejoin="round"/>
<g id="SVGRepo_iconCarrier">
<defs>
<style>.cls-1{fill:none;stroke:#fff;stroke-linecap:round;stroke-linejoin:round;}</style>
</defs>
<path id="path50" class="cls-1" d="M24,42h0l7.18-22.1H16.82L24,42Z"/>
<path id="path66" class="cls-1" d="M6.76,19.86h0L4.57,26.57a1.5,1.5,0,0,0,.54,1.67L24,42,6.76,19.86Z"/>
<path id="path74" class="cls-1" d="M6.76,19.86H16.82L12.49,6.55a.74.74,0,0,0-1.41,0L6.76,19.86Z"/>
<path id="path82" class="cls-1" d="M41.25,19.86h0l2.18,6.71a1.5,1.5,0,0,1-.54,1.67L24,42l17.25-22.1Z"/>
<path id="path86" class="cls-1" d="M41.25,19.86H31.18L35.51,6.55a.74.74,0,0,1,1.41,0l4.33,13.31Z"/>
<polygon class="cls-1" points="24 41.96 31.18 19.86 41.25 19.86 24 41.96"/>
<polygon class="cls-1" points="24 41.96 6.76 19.86 16.82 19.86 24 41.96"/>
</g>
</svg>